<svg width="1440" height="2380" viewBox="0 0 1440 2380" fill="none" xmlns="http://www.w3.org/2000/svg">
  <defs>
    <linearGradient id="bg" x1="0" y1="0" x2="1440" y2="2380" gradientUnits="userSpaceOnUse">
      <stop stop-color="#170A0B"/>
      <stop offset="0.42" stop-color="#2A0E12"/>
      <stop offset="1" stop-color="#090706"/>
    </linearGradient>
    <linearGradient id="gold" x1="0" y1="0" x2="1" y2="1">
      <stop stop-color="#F8E7A3"/>
      <stop offset="0.45" stop-color="#C99A3D"/>
      <stop offset="1" stop-color="#7D4F14"/>
    </linearGradient>
    <linearGradient id="wine" x1="0" y1="0" x2="0" y2="1">
      <stop stop-color="#451016"/>
      <stop offset="0.52" stop-color="#21090C"/>
      <stop offset="1" stop-color="#0B0706"/>
    </linearGradient>
    <linearGradient id="card" x1="0" y1="0" x2="1" y2="1">
      <stop stop-color="#FFF6D8"/>
      <stop offset="1" stop-color="#B67C25"/>
    </linearGradient>
    <filter id="softShadow" x="-20%" y="-20%" width="140%" height="140%">
      <feDropShadow dx="0" dy="24" stdDeviation="24" flood-color="#000000" flood-opacity="0.45"/>
    </filter>
    <filter id="glow" x="-60%" y="-60%" width="220%" height="220%">
      <feGaussianBlur stdDeviation="28" result="blur"/>
      <feColorMatrix in="blur" type="matrix" values="1 0 0 0 0.96 0 1 0 0 0.68 0 0 1 0 0.22 0 0 0 0.45 0"/>
      <feBlend in2="SourceGraphic" mode="screen"/>
    </filter>
    <pattern id="grain" width="120" height="120" patternUnits="userSpaceOnUse">
      <path d="M14 18h2v2h-2zM78 44h2v2h-2zM46 92h2v2h-2zM108 76h2v2h-2z" fill="#C79A46" opacity="0.12"/>
    </pattern>
    <style>
      .font { font-family: "Microsoft YaHei", "PingFang SC", "Noto Sans CJK SC", sans-serif; }
      .serif { font-family: "SimSun", "Noto Serif CJK SC", serif; }
      .small { font-size: 24px; letter-spacing: 0; }
      .body { font-size: 30px; letter-spacing: 0; }
      .mid { font-size: 38px; letter-spacing: 0; }
      .big { font-size: 58px; letter-spacing: 0; }
      .title { font-size: 82px; letter-spacing: 0; font-weight: 800; }
      .goldText { fill: #E4BE64; }
      .ivory { fill: #FFF7E0; }
      .muted { fill: #C8BCA5; }
      .red { fill: #D94735; }
      .panel { fill: rgba(255,248,230,0.07); stroke: rgba(237,195,107,0.28); stroke-width: 2; }
      .panel2 { fill: rgba(255,248,230,0.045); stroke: rgba(237,195,107,0.2); stroke-width: 2; }
      .line { stroke: rgba(237,195,107,0.22); stroke-width: 2; }
    </style>
  </defs>

  <rect width="1440" height="2380" fill="url(#bg)"/>
  <rect width="1440" height="2380" fill="url(#grain)"/>
  <circle cx="1030" cy="300" r="330" fill="#A22A20" opacity="0.16" filter="url(#glow)"/>
  <circle cx="310" cy="860" r="300" fill="#C99A3D" opacity="0.10" filter="url(#glow)"/>

  <!-- Top navigation -->
  <g class="font">
    <text x="92" y="92" class="mid goldText" font-weight="800">Wine369</text>
    <text x="255" y="92" class="small muted">Fujian Aged Wine Global Membership</text>
    <text x="1056" y="92" class="small muted">NFT酒证</text>
    <text x="1180" y="92" class="small muted">Token权益</text>
    <text x="1310" y="92" class="small muted">海外专属</text>
  </g>

  <!-- Hero -->
  <g transform="translate(78 145)">
    <rect x="0" y="0" width="1284" height="680" rx="34" fill="rgba(255,247,224,0.055)" stroke="rgba(237,195,107,0.22)" stroke-width="2"/>
    <path d="M42 70C210 14 350 18 510 85C705 168 808 120 979 82C1102 55 1191 68 1240 90V640H42V70Z" fill="#2B0C10" opacity="0.82"/>

    <!-- Bottle -->
    <g transform="translate(96 74)" filter="url(#softShadow)">
      <ellipse cx="232" cy="564" rx="168" ry="42" fill="#000" opacity="0.35"/>
      <rect x="184" y="20" width="96" height="128" rx="32" fill="url(#gold)"/>
      <rect x="165" y="118" width="134" height="84" rx="34" fill="#331014"/>
      <path d="M115 205C120 156 344 156 349 205L390 520C396 565 360 604 315 604H149C104 604 68 565 74 520L115 205Z" fill="url(#wine)" stroke="#D0A44E" stroke-width="5"/>
      <rect x="128" y="300" width="210" height="156" rx="18" fill="#F7E9BE" stroke="#C99A3D" stroke-width="3"/>
      <text x="233" y="366" text-anchor="middle" class="serif" font-size="44" fill="#4B1114" font-weight="800">福建老酒</text>
      <text x="233" y="414" text-anchor="middle" class="font" font-size="26" fill="#7A4B1C">369 GLOBAL</text>
      <path d="M150 478H316" stroke="#B8822A" stroke-width="2"/>
      <text x="233" y="522" text-anchor="middle" class="font" font-size="22" fill="#A06C25">NFT CERTIFIED</text>
    </g>

    <!-- Copy -->
    <g class="font" transform="translate(560 92)">
      <rect x="0" y="0" width="160" height="42" rx="21" fill="rgba(228,190,100,0.14)" stroke="rgba(228,190,100,0.35)"/>
      <text x="24" y="29" class="small goldText">海外用户专属</text>
      <text x="0" y="128" class="title ivory">福建老酒 Wine369</text>
      <text x="0" y="193" class="big goldText" font-weight="700">全球会员权益详情页</text>
      <text x="0" y="255" class="body muted">一瓶老酒，一张NFT酒证，一套可使用的Web3会员权益。</text>

      <g transform="translate(0 326)">
        <text x="0" y="36" class="small muted">老酒礼包价格</text>
        <text x="0" y="112" font-size="88" fill="#FFF7E0" font-weight="900">$369</text>
        <text x="250" y="104" class="mid goldText" font-weight="800">USD / 瓶</text>
      </g>

      <g transform="translate(0 508)">
        <rect x="0" y="0" width="230" height="66" rx="33" fill="url(#gold)"/>
        <text x="115" y="43" text-anchor="middle" font-size="26" fill="#24090B" font-weight="900">立即购买礼包</text>
        <rect x="258" y="0" width="230" height="66" rx="33" fill="rgba(255,247,224,0.08)" stroke="#B98532" stroke-width="2"/>
        <text x="373" y="43" text-anchor="middle" font-size="26" fill="#E4BE64" font-weight="800">查看权益说明</text>
      </g>
    </g>
  </g>

  <!-- Quick facts -->
  <g class="font" transform="translate(78 875)">
    <rect x="0" y="0" width="1284" height="206" rx="30" class="panel"/>
    <g transform="translate(44 42)">
      <text x="0" y="35" class="small muted">每瓶礼包包含</text>
      <text x="0" y="100" class="mid ivory" font-weight="800">福建老酒实物</text>
      <text x="0" y="146" class="small goldText">传统老酒商品交付</text>
    </g>
    <line x1="326" y1="42" x2="326" y2="164" class="line"/>
    <g transform="translate(370 42)">
      <text x="0" y="35" class="small muted">链上凭证</text>
      <text x="0" y="100" class="mid ivory" font-weight="800">1 个 NFT 酒证</text>
      <text x="0" y="146" class="small goldText">溯源、防伪、会员身份</text>
    </g>
    <line x1="650" y1="42" x2="650" y2="164" class="line"/>
    <g transform="translate(694 42)">
      <text x="0" y="35" class="small muted">会员权益</text>
      <text x="0" y="100" class="mid ivory" font-weight="800">369,000 枚 Token 权益</text>
      <text x="0" y="146" class="small goldText">用于抵扣、升级、兑换</text>
    </g>
    <line x1="1002" y1="42" x2="1002" y2="164" class="line"/>
    <g transform="translate(1046 42)">
      <text x="0" y="35" class="small muted">基础声明</text>
      <text x="0" y="100" class="mid ivory" font-weight="800">市场自由定价</text>
      <text x="0" y="146" class="small goldText">不承诺收益</text>
    </g>
  </g>

  <!-- Product economics and token release -->
  <g class="font" transform="translate(78 1130)">
    <g>
      <rect x="0" y="0" width="616" height="430" rx="30" class="panel2"/>
      <text x="42" y="64" class="mid ivory" font-weight="900">369 USD 老酒礼包</text>
      <text x="42" y="110" class="small muted">面向海外会员的实物商品与链上权益组合</text>
      <g transform="translate(42 158)">
        <rect x="0" y="0" width="532" height="54" rx="16" fill="rgba(255,247,224,0.06)"/>
        <text x="24" y="36" class="small muted">福建老酒实物礼包</text>
        <text x="394" y="36" class="small ivory" font-weight="800">1 瓶</text>
        <rect x="0" y="78" width="532" height="54" rx="16" fill="rgba(255,247,224,0.06)"/>
        <text x="24" y="114" class="small muted">NFT 酒证</text>
        <text x="394" y="114" class="small ivory" font-weight="800">1 个</text>
        <rect x="0" y="156" width="532" height="54" rx="16" fill="rgba(255,247,224,0.06)"/>
        <text x="24" y="192" class="small muted">Wine369 Token 权益</text>
        <text x="336" y="192" class="small ivory" font-weight="800">369,000 枚</text>
      </g>
      <text x="42" y="382" class="small goldText">实物交付 + NFT 酒证 + 会员权益，形成可持续消费场景。</text>
    </g>

    <g transform="translate(668 0)">
      <rect x="0" y="0" width="616" height="430" rx="30" class="panel2"/>
      <text x="42" y="64" class="mid ivory" font-weight="900">Token 释放机制</text>
      <text x="42" y="110" class="small muted">避免一次性释放，降低市场抛压</text>
      <g transform="translate(42 164)">
        <rect x="0" y="0" width="532" height="36" rx="18" fill="#2E1514"/>
        <rect x="0" y="0" width="106" height="36" rx="18" fill="#D94735"/>
        <rect x="106" y="0" width="160" height="36" fill="#E4BE64"/>
        <rect x="266" y="0" width="266" height="36" rx="18" fill="#7E5B23"/>
        <text x="0" y="84" class="small ivory" font-weight="800">20% 立即释放</text>
        <text x="0" y="126" class="small muted">购买后进入用户钱包，可用于消费权益。</text>
        <text x="0" y="194" class="small ivory" font-weight="800">30% 六个月释放</text>
        <text x="0" y="236" class="small muted">按周期解锁，适合会员留存。</text>
        <text x="0" y="304" class="small ivory" font-weight="800">50% 十二到二十四个月释放</text>
        <text x="0" y="346" class="small muted">长期权益绑定，保护生态稳定。</text>
      </g>
    </g>
  </g>

  <!-- Use cases -->
  <g class="font" transform="translate(78 1610)">
    <text x="0" y="0" class="big ivory" font-weight="900">Wine369 Token 可以怎么用</text>
    <text x="0" y="48" class="body muted">不是收益承诺，而是可消费、可升级、可兑换、可展示的会员权益。</text>

    <g transform="translate(0 88)">
      <rect x="0" y="0" width="394" height="190" rx="26" class="panel"/>
      <circle cx="58" cy="62" r="28" fill="url(#gold)"/>
      <text x="104" y="72" class="mid ivory" font-weight="900">购酒抵扣</text>
      <text x="42" y="126" class="small muted">按平台规则抵扣部分订单金额，提升复购动力。</text>

      <rect x="445" y="0" width="394" height="190" rx="26" class="panel"/>
      <circle cx="503" cy="62" r="28" fill="url(#gold)"/>
      <text x="549" y="72" class="mid ivory" font-weight="900">会员升级</text>
      <text x="487" y="126" class="small muted">解锁限量酒、优先购、品鉴活动资格。</text>

      <rect x="890" y="0" width="394" height="190" rx="26" class="panel"/>
      <circle cx="948" cy="62" r="28" fill="url(#gold)"/>
      <text x="994" y="72" class="mid ivory" font-weight="900">NFT 升级</text>
      <text x="932" y="126" class="small muted">普通酒证升级为年份版、收藏版、酒窖版。</text>
    </g>
  </g>

  <!-- Scenario -->
  <g class="font" transform="translate(78 1948)">
    <rect x="0" y="0" width="1284" height="258" rx="30" fill="rgba(228,190,100,0.10)" stroke="rgba(228,190,100,0.32)" stroke-width="2"/>
    <text x="42" y="64" class="mid ivory" font-weight="900">情景测算：每瓶 369,000 枚 Token 权益</text>
    <text x="42" y="112" class="small muted">以下为价格情景展示，不构成收益承诺，Token 价格由市场供需决定。</text>
    <g transform="translate(42 150)">
      <text x="0" y="38" class="small goldText">$0.0001</text>
      <text x="122" y="38" class="small ivory" font-weight="800">≈ $36.9</text>
      <line x1="250" y1="8" x2="250" y2="58" class="line"/>
      <text x="290" y="38" class="small goldText">$0.001</text>
      <text x="410" y="38" class="small ivory" font-weight="800">≈ $369</text>
      <line x1="532" y1="8" x2="532" y2="58" class="line"/>
      <text x="572" y="38" class="small goldText">$0.005</text>
      <text x="704" y="38" class="small ivory" font-weight="800">≈ $1,845</text>
      <line x1="850" y1="8" x2="850" y2="58" class="line"/>
      <text x="890" y="38" class="small goldText">10万人购买</text>
      <text x="1052" y="38" class="small ivory" font-weight="800">销售额 $36.9M</text>
    </g>
  </g>

  <!-- Process and restrictions -->
  <g class="font" transform="translate(78 2250)">
    <text x="0" y="0" class="small muted">购买流程：选择礼包 → 完成海外用户资格校验 → 支付 → 获得NFT酒证 → Token权益按周期释放 → 用户自主消费或交易。</text>
    <text x="0" y="54" class="small goldText">限制说明：中国大陆用户、中国身份用户、中国手机号、中国IP不开放。市场自由定价，不承诺收益、回本、分红或涨幅。</text>
  </g>
</svg>
